<svg width="32" height="32" viewBox="0 0 32 32" fill="none" xmlns="http://www.w3.org/2000/svg">
<circle cx="16" cy="16" r="16" fill="white"/>
<path d="M19.3041 7.02469C19.2648 7.03653 19.2529 7.21011 19.2529 7.68745C19.2529 8.16084 19.2411 8.34231 19.2057 8.36598C19.1781 8.38176 17.9261 8.40543 16.4221 8.41727C14.6228 8.4291 13.6857 8.44882 13.6739 8.47644C13.666 8.50011 14.2409 9.10369 14.9496 9.82167C16.4615 11.3484 21.3239 16.2717 22.3318 17.2934C22.7177 17.6879 23.0681 18.0075 23.1193 18.0193C23.2965 18.0548 31.5056 18.0785 31.6 18.043L31.6945 18.0035V17.179C31.6945 16.4611 31.6867 16.3506 31.6276 16.3033C31.5686 16.252 31.2811 16.2401 29.7417 16.2283H29.5409L28.277 14.9738C27.5802 14.2874 26.3872 13.1039 25.6234 12.3465L24.2335 10.9697L24.2217 9.03662C24.2138 7.70717 24.1981 7.08387 24.1666 7.04836C24.1351 7.00891 23.6705 6.99708 21.7373 7.00102C20.4262 7.00102 19.3277 7.01286 19.3041 7.02469ZM23.4973 7.73479C23.513 7.75846 23.5248 8.22002 23.5248 8.76048C23.5248 9.73094 23.5248 9.73883 23.4382 9.75066C23.3831 9.75855 23.3043 9.70727 23.1862 9.57709C23.0917 9.47452 22.9027 9.27332 22.7649 9.1313C22.0247 8.36204 22.0326 8.37387 22.072 7.99515C22.0956 7.78607 22.1153 7.73479 22.1822 7.70323C22.3082 7.65194 23.4618 7.67561 23.4973 7.73479Z" fill="url(#paint0_linear_327_63)"/>
<path d="M9.56821 9.65877C8.90676 10.3176 7.15864 12.0652 5.67824 13.5367L2.98519 16.2153L2.63084 16.239C2.43791 16.2508 2.03238 16.2508 1.73315 16.239C0.94571 16.2035 1.00083 16.1364 1.00083 17.1424C1.00477 17.742 1.01658 17.9669 1.05595 18.0142C1.09926 18.0655 1.26856 18.0734 2.35523 18.0694C3.15842 18.0655 3.62695 18.0458 3.6742 18.0182C3.71357 17.9945 5.30421 16.4244 7.20982 14.5269C9.11937 12.6333 10.6982 11.0671 10.7218 11.0513C10.7494 11.0356 10.7848 11.0198 10.8006 11.0198C10.8281 11.0198 16.1473 16.3415 16.3835 16.6059C16.4386 16.669 16.6158 16.8465 16.7773 17.0004C16.9387 17.1582 17.2143 17.4382 17.3954 17.6237C17.5726 17.8091 17.7537 17.9787 17.7931 18.0024C17.8403 18.026 18.3324 18.0418 19.0963 18.0418C20.1514 18.0418 20.3207 18.0339 20.3404 17.9826C20.3562 17.9393 19.3679 16.9293 17.0922 14.657C15.2929 12.8621 13.159 10.7318 12.3518 9.92308C11.5447 9.11831 10.8596 8.45556 10.8281 8.45556C10.7966 8.45556 10.2297 8.99602 9.56821 9.65877Z" fill="url(#paint1_linear_327_63)"/>
<path d="M9.09654 14.9202L8.99811 14.9478L8.9863 15.5316C8.98236 15.8946 8.99024 16.1352 9.0178 16.1668C9.04536 16.1983 9.22254 16.2141 9.60838 16.218C10.0533 16.222 10.1675 16.2102 10.2187 16.1628C10.2659 16.1155 10.2777 15.9932 10.2777 15.5316V14.9635L10.1753 14.9241C10.0651 14.8807 9.2501 14.8768 9.09654 14.9202Z" fill="url(#paint2_linear_327_63)"/>
<path d="M11.005 14.9397C10.9381 14.9871 10.9302 15.0541 10.9224 15.5354C10.9105 16.2613 10.8909 16.2376 11.5956 16.2179C11.9421 16.21 12.139 16.1903 12.1705 16.1587C12.2413 16.0877 12.2295 14.9634 12.1586 14.92C12.0681 14.8608 11.0877 14.8766 11.005 14.9397Z" fill="url(#paint3_linear_327_63)"/>
<path d="M9.25299 16.6975L8.99707 16.7211V17.3523V17.9835L9.56009 17.9953C9.90263 17.9993 10.1507 17.9875 10.1979 17.9638C10.2688 17.9243 10.2767 17.8809 10.2767 17.3799C10.2767 17.0052 10.2609 16.8158 10.2294 16.7685C10.1704 16.6935 9.69396 16.658 9.25299 16.6975Z" fill="url(#paint4_linear_327_63)"/>
<path d="M10.981 16.7425C10.8905 16.8333 10.8944 17.9063 10.985 17.9615C11.0637 18.0128 12.1543 18.0128 12.1858 17.9615C12.2291 17.8945 12.2252 16.782 12.1819 16.7386C12.1622 16.7189 11.8945 16.6952 11.5952 16.6913C11.1346 16.6794 11.0322 16.6913 10.981 16.7425Z" fill="url(#paint5_linear_327_63)"/>
<path d="M16.163 20.7242C14.9858 20.8307 14.3283 20.9096 14.1983 20.9569C14.1393 20.9806 13.9149 21.02 13.7101 21.0398C13.5015 21.0634 13.3125 21.0989 13.2889 21.1226C13.2416 21.1739 14.1669 21.1463 14.6669 21.0832C15.2338 21.0122 17.1631 20.953 18.0529 20.9806C18.9388 21.0043 20.0766 21.1108 20.6199 21.2212C21.0452 21.3041 21.8287 21.5013 22.0885 21.5881C22.9902 21.8958 23.1595 21.9353 24.1556 22.0655C24.821 22.1562 26.3447 22.1799 26.9313 22.1089C27.1164 22.0891 27.4274 22.0576 27.6203 22.0457C27.8172 22.03 28.1951 21.9826 28.4668 21.9432C28.7385 21.8998 29.0692 21.8485 29.1991 21.8288C29.333 21.809 29.4866 21.7735 29.5456 21.7499C29.6007 21.7301 29.7582 21.6946 29.8921 21.671C30.026 21.6512 30.1519 21.6157 30.1756 21.5921C30.2464 21.5171 29.6401 21.5684 28.3487 21.738C27.5928 21.8367 24.8052 21.8367 24.1753 21.7341C23.6359 21.6473 22.6515 21.4027 22.2657 21.2607C21.2499 20.882 19.8994 20.6847 18.1316 20.665C17.2379 20.6532 16.8127 20.665 16.163 20.7242Z" fill="url(#paint6_linear_327_63)"/>
<path d="M12.2059 22.4021C11.3515 22.5046 10.5877 22.6703 10.0011 22.8676C9.21757 23.1358 8.5443 23.2502 7.26471 23.3252C6.45758 23.3725 4.57953 23.2779 3.79996 23.1516C3.44167 23.0924 2.85897 23.0214 2.41406 22.982C2.25657 22.9662 2.16602 22.9741 2.16602 23.0017C2.16602 23.053 2.26445 23.0885 2.418 23.0885C2.48493 23.0885 2.64242 23.124 2.76841 23.1674C2.89046 23.2108 3.04401 23.2463 3.10701 23.2463C3.17001 23.2463 3.3708 23.2779 3.55192 23.3213C3.85902 23.3923 4.27636 23.4554 5.17799 23.5698C5.71738 23.6408 8.22539 23.6408 8.60336 23.5698C8.75691 23.5422 9.02858 23.4948 9.21363 23.4593C9.39868 23.4238 9.62704 23.3725 9.72547 23.341C11.0562 22.9228 11.7256 22.7887 12.9776 22.694C13.6509 22.6467 15.3793 22.6427 16.1038 22.694C17.277 22.7729 17.7968 22.8163 18.1747 22.8715C18.3952 22.9031 18.6669 22.9307 18.7811 22.9307C19.1039 22.9307 18.9661 22.836 18.5566 22.7729C18.3637 22.7453 18.0802 22.6901 17.9188 22.6467C17.7574 22.6072 17.5527 22.5757 17.466 22.5757C17.3755 22.5757 17.1983 22.5559 17.0684 22.5323C16.3912 22.4139 15.5959 22.3666 14.1548 22.3547C13.0445 22.3469 12.5406 22.3587 12.2059 22.4021Z" fill="url(#paint7_linear_327_63)"/>
<defs>
<linearGradient id="paint0_linear_327_63" x1="31.6945" y1="12.5304" x2="13.6738" y2="12.5304" gradientUnits="userSpaceOnUse">
<stop stop-color="#FF1E27"/>
<stop offset="1" stop-color="#7D141D"/>
</linearGradient>
<linearGradient id="paint1_linear_327_63" x1="20.3406" y1="13.2629" x2="1" y2="13.2629" gradientUnits="userSpaceOnUse">
<stop stop-color="#FF1E27"/>
<stop offset="1" stop-color="#7D141D"/>
</linearGradient>
<linearGradient id="paint2_linear_327_63" x1="10.2777" y1="15.5541" x2="8.98535" y2="15.5541" gradientUnits="userSpaceOnUse">
<stop stop-color="#FF1E27"/>
<stop offset="1" stop-color="#7D141D"/>
</linearGradient>
<linearGradient id="paint3_linear_327_63" x1="12.2181" y1="15.5538" x2="10.9189" y2="15.5538" gradientUnits="userSpaceOnUse">
<stop stop-color="#FF1E27"/>
<stop offset="1" stop-color="#7D141D"/>
</linearGradient>
<linearGradient id="paint4_linear_327_63" x1="10.2767" y1="17.3386" x2="8.99707" y2="17.3386" gradientUnits="userSpaceOnUse">
<stop stop-color="#FF1E27"/>
<stop offset="1" stop-color="#7D141D"/>
</linearGradient>
<linearGradient id="paint5_linear_327_63" x1="12.2164" y1="17.3435" x2="10.915" y2="17.3435" gradientUnits="userSpaceOnUse">
<stop stop-color="#FF1E27"/>
<stop offset="1" stop-color="#7D141D"/>
</linearGradient>
<linearGradient id="paint6_linear_327_63" x1="30.1811" y1="21.4056" x2="13.2871" y2="21.4056" gradientUnits="userSpaceOnUse">
<stop stop-color="#FF1E27"/>
<stop offset="1" stop-color="#7D141D"/>
</linearGradient>
<linearGradient id="paint7_linear_327_63" x1="18.9599" y1="22.9878" x2="2.16602" y2="22.9878" gradientUnits="userSpaceOnUse">
<stop stop-color="#FF1E27"/>
<stop offset="1" stop-color="#7D141D"/>
</linearGradient>
</defs>
</svg>
