<svg width="275" height="36" viewBox="0 0 275 36" fill="none" xmlns="http://www.w3.org/2000/svg">
<path d="M39.1444 0.0507278C39.0602 0.0759926 39.035 0.446537 39.035 1.46553C39.035 2.47611 39.0097 2.8635 38.9339 2.91403C38.8749 2.94771 36.1969 2.99824 32.9799 3.0235C29.1313 3.04877 27.127 3.09088 27.1017 3.14983C27.0849 3.20036 28.3144 4.48884 29.8303 6.02155C33.0641 9.28065 43.4646 19.7906 45.6205 21.9718C46.4458 22.814 47.1954 23.4961 47.3048 23.5214C47.6838 23.5971 65.2426 23.6477 65.4447 23.5719L65.6468 23.4877V21.7276C65.6468 20.1949 65.6299 19.9591 65.5036 19.858C65.3773 19.7485 64.7625 19.7233 61.4697 19.698H61.0402L58.337 17.02C56.8463 15.5546 54.2946 13.0282 52.6609 11.4113L49.6881 8.47219L49.6628 4.34567C49.646 1.50764 49.6123 0.17705 49.5449 0.101255C49.4776 0.0170422 48.4838 -0.00822258 44.3489 0.000198364C41.5445 0.000198364 39.195 0.0254631 39.1444 0.0507278ZM48.1133 1.56659C48.147 1.61712 48.1722 2.60243 48.1722 3.75617C48.1722 5.82785 48.1722 5.8447 47.987 5.86996C47.8691 5.8868 47.7006 5.77732 47.448 5.49942C47.2459 5.28046 46.8416 4.85096 46.5469 4.54779C44.9637 2.90561 44.9805 2.93087 45.0647 2.12241C45.1152 1.67607 45.1574 1.56659 45.3005 1.49922C45.57 1.38974 48.0375 1.44027 48.1133 1.56659Z" fill="white"/>
<path d="M18.3269 5.67638C16.9121 7.08277 13.1729 10.8135 10.0065 13.9547L4.2462 19.6729L3.48826 19.7234C3.07561 19.7487 2.2082 19.7487 1.56817 19.7234C-0.116122 19.6476 0.00177812 19.5044 0.00177812 21.6519C0.0101996 22.932 0.035464 23.412 0.119679 23.513C0.212315 23.6225 0.574438 23.6394 2.89876 23.6309C4.61674 23.6225 5.6189 23.5804 5.71995 23.5215C5.80417 23.4709 9.20644 20.1192 13.2824 16.0685C17.3668 12.0262 20.7438 8.68285 20.7944 8.64916C20.8533 8.61547 20.9291 8.58179 20.9628 8.58179C21.0218 8.58179 32.3992 19.9423 32.9044 20.5066C33.0223 20.6413 33.4013 21.0203 33.7466 21.3487C34.0919 21.6856 34.6814 22.2835 35.0688 22.6793C35.4477 23.0751 35.8351 23.4373 35.9193 23.4878C36.0204 23.5383 37.0731 23.572 38.7068 23.572C40.9638 23.572 41.3259 23.5552 41.368 23.4457C41.4017 23.353 39.2879 21.1971 34.4203 16.3464C30.5717 12.5146 26.0073 7.96702 24.2809 6.24062C22.5545 4.52264 21.0891 3.10784 21.0218 3.10784C20.9544 3.10784 19.7417 4.26158 18.3269 5.67638Z" fill="white"/>
<path d="M17.3081 16.9114L17.0976 16.9704L17.0723 18.2168C17.0639 18.9915 17.0808 19.5052 17.1397 19.5726C17.1987 19.64 17.5776 19.6737 18.4029 19.6821C19.3546 19.6905 19.5988 19.6652 19.7083 19.5642C19.8093 19.4631 19.8346 19.2021 19.8346 18.2168V17.0041L19.6156 16.9198C19.3798 16.8272 17.6366 16.8188 17.3081 16.9114Z" fill="white"/>
<path d="M21.4029 16.9564C21.2597 17.0574 21.2429 17.2006 21.2261 18.228C21.2008 19.7775 21.1587 19.727 22.6661 19.6849C23.4072 19.6681 23.8283 19.626 23.8957 19.5586C24.0472 19.407 24.022 17.0069 23.8704 16.9142C23.6767 16.7879 21.5798 16.8216 21.4029 16.9564Z" fill="white"/>
<path d="M17.649 20.7004L17.1016 20.7509V22.0984V23.4458L18.3058 23.4711C19.0385 23.4795 19.5691 23.4542 19.6701 23.4037C19.8217 23.3195 19.8385 23.2268 19.8385 22.1573C19.8385 21.3573 19.8049 20.953 19.7375 20.852C19.6112 20.692 18.5922 20.6162 17.649 20.7004Z" fill="white"/>
<path d="M21.3443 20.8039C21.1506 20.9976 21.159 23.2883 21.3527 23.4062C21.5211 23.5157 23.8538 23.5157 23.9212 23.4062C24.0139 23.263 24.0054 20.8882 23.9128 20.7955C23.8707 20.7534 23.298 20.7029 22.658 20.6945C21.6727 20.6692 21.4537 20.6945 21.3443 20.8039Z" fill="white"/>
<path d="M32.4326 29.2952C29.9146 29.5226 28.5082 29.6911 28.2303 29.7921C28.104 29.8426 27.624 29.9269 27.1861 29.969C26.7397 30.0195 26.3355 30.0953 26.285 30.1458C26.1839 30.2553 28.163 30.1963 29.2325 30.0616C30.4452 29.91 34.5717 29.7837 36.4749 29.8426C38.3698 29.8932 40.8036 30.1206 41.9657 30.3564C42.8753 30.5332 44.5511 30.9543 45.107 31.1395C47.0355 31.7964 47.3976 31.8806 49.5282 32.1585C50.9514 32.3522 54.2106 32.4028 55.4654 32.2512C55.8612 32.2091 56.5265 32.1417 56.9391 32.1164C57.3602 32.0828 58.1686 31.9817 58.7497 31.8975C59.3308 31.8048 60.0382 31.6954 60.3161 31.6533C60.6024 31.6111 60.9309 31.5354 61.0572 31.4848C61.1751 31.4427 61.512 31.3669 61.7983 31.3164C62.0846 31.2743 62.3541 31.1985 62.4046 31.148C62.5562 30.988 61.2593 31.0974 58.4971 31.4596C56.8802 31.6701 50.9178 31.6701 49.5703 31.4511C48.4166 31.2659 46.3112 30.7437 45.4859 30.4406C43.3132 29.6321 40.4246 29.211 36.6434 29.1689C34.7317 29.1437 33.8222 29.1689 32.4326 29.2952Z" fill="white"/>
<path d="M23.9669 32.8857C22.1395 33.1047 20.5057 33.4584 19.2509 33.8795C17.575 34.4521 16.135 34.6964 13.398 34.8564C11.6716 34.9574 7.65455 34.7553 5.9871 34.4858C5.22074 34.3595 3.97437 34.2079 3.02274 34.1237C2.68588 34.09 2.49219 34.1069 2.49219 34.1658C2.49219 34.2753 2.70272 34.3511 3.03116 34.3511C3.17433 34.3511 3.51118 34.4269 3.78067 34.5195C4.04174 34.6121 4.37017 34.6879 4.50492 34.6879C4.63966 34.6879 5.06916 34.7553 5.45654 34.8479C6.11342 34.9995 7.00609 35.1343 8.93461 35.3785C10.0884 35.5301 15.4528 35.5301 16.2613 35.3785C16.5897 35.3195 17.1708 35.2185 17.5666 35.1427C17.9624 35.0669 18.4509 34.9574 18.6614 34.8901C21.5079 33.9974 22.9395 33.711 25.6175 33.5089C27.0576 33.4079 30.7546 33.3995 32.3042 33.5089C34.8138 33.6774 35.9254 33.77 36.7339 33.8879C37.2055 33.9553 37.7866 34.0142 38.0308 34.0142C38.7213 34.0142 38.4266 33.8121 37.5508 33.6774C37.1381 33.6184 36.5318 33.5005 36.1865 33.4079C35.8412 33.3237 35.4033 33.2563 35.218 33.2563C35.0243 33.2563 34.6453 33.2142 34.3674 33.1637C32.9189 32.911 31.2178 32.81 28.1356 32.7847C25.7607 32.7678 24.6828 32.7931 23.9669 32.8857Z" fill="white"/>
<path d="M81.5234 17.6262C78.8404 17.6542 77.2473 15.7817 77.2473 14.7197V12.9869C77.2473 12.7074 77.3591 12.5118 77.5268 12.5118H77.5827C78.1696 12.5118 78.505 16.5642 81.5234 16.5642C83.1443 16.5642 84.4579 15.3345 84.4579 13.7415C84.4579 12.0646 82.7531 11.7293 81.0762 10.807C79.4552 9.91265 77.4989 9.01832 77.4989 6.97813C77.4989 4.8541 79.595 3.37286 81.8867 3.37286C84.5697 3.37286 85.6037 4.88204 85.6037 5.4969V7.22966C85.6037 7.50914 85.4919 7.70477 85.3243 7.70477H85.2684C84.4299 7.70477 84.6815 4.46283 81.8867 4.46283C80.7408 4.46283 79.567 5.30126 79.567 6.41917C79.567 7.78862 80.9644 8.20783 82.2779 8.90653C84.1505 9.91265 86.526 10.6393 86.526 13.2943C86.526 15.8935 84.0107 17.6262 81.5234 17.6262ZM95.4499 4.40693L99.7539 15.9214C99.9774 16.5083 100.704 16.5083 100.704 16.8717V16.9276C100.704 17.0952 100.508 17.207 100.229 17.207H97.015C96.7634 17.207 96.5678 17.0952 96.5678 16.9276V16.8717C96.5678 16.5083 97.6019 16.5083 97.3783 15.9214L96.1765 12.8192H90.8944L89.5249 15.9214C89.2734 16.5083 90.1398 16.5083 90.1398 16.8717V16.9276C90.1398 17.0952 89.9442 17.207 89.6926 17.207H87.6245C87.345 17.207 87.1494 17.0952 87.1494 16.9276V16.8717C87.1494 16.5083 88.0158 16.5363 88.2952 15.9214L93.0743 5.07768C93.3259 4.51872 92.18 4.54667 92.18 4.12745V4.07156C92.18 3.90387 92.3756 3.79208 92.6551 3.79208H94.0804C94.9468 3.79208 95.2263 3.90387 95.4499 4.40693ZM91.3975 11.7013H95.7573L93.773 6.25149L91.3975 11.7013ZM102.633 15.9214V5.07768C102.633 4.43488 101.739 4.49077 101.739 4.12745V4.07156C101.739 3.90387 101.934 3.79208 102.214 3.79208H105.288C105.54 3.79208 105.735 3.90387 105.735 4.07156V4.12745C105.735 4.49077 104.869 4.43488 104.869 5.07768V15.9214C104.869 16.5642 105.735 16.5083 105.735 16.8717V16.9276C105.735 17.0952 105.54 17.207 105.288 17.207H102.214C101.934 17.207 101.739 17.0952 101.739 16.9276V16.8717C101.739 16.5083 102.633 16.5642 102.633 15.9214ZM113.96 15.9214V5.07768C113.96 4.43488 113.065 4.49077 113.065 4.12745V4.07156C113.065 3.90387 113.261 3.79208 113.54 3.79208H116.615C116.866 3.79208 117.062 3.90387 117.062 4.07156V4.12745C117.062 4.49077 116.195 4.43488 116.195 5.07768V15.9214C116.195 16.5642 117.062 16.5083 117.062 16.8717V16.9276C117.062 17.0952 116.866 17.207 116.615 17.207H113.54C113.261 17.207 113.065 17.0952 113.065 16.9276V16.8717C113.065 16.5083 113.96 16.5642 113.96 15.9214ZM119.637 5.07768C119.637 4.49077 118.742 4.54667 118.742 4.12745V4.07156C118.742 3.90387 118.938 3.79208 119.217 3.79208H120.754C121.062 3.79208 121.369 3.82003 121.621 4.12745C125.589 9.01832 126.791 10.6672 129.167 13.7136V5.07768C129.167 4.43488 128.272 4.49077 128.272 4.12745V4.07156C128.272 3.90387 128.468 3.79208 128.748 3.79208H130.704C130.955 3.79208 131.151 3.90387 131.151 4.07156V4.12745C131.151 4.49077 130.285 4.43488 130.285 5.07768V16.9834C130.285 17.1511 130.229 17.207 130.089 17.207H129.614C129.306 17.207 128.999 17.0952 128.803 16.8996L120.754 6.61481V15.9214C120.754 16.5642 121.621 16.5083 121.621 16.8717V16.9276C121.621 17.0952 121.425 17.207 121.174 17.207H119.217C118.938 17.207 118.742 17.0952 118.742 16.9276V16.8717C118.742 16.5083 119.637 16.5642 119.637 15.9214V5.07768ZM118.742 4.07156V4.12745V4.07156ZM118.742 4.07156V4.12745V4.07156ZM133.217 3.79208H142.887C143.054 3.79208 143.054 3.84797 143.082 3.98771L143.669 6.39123C143.725 6.6707 143.557 6.86634 143.39 6.86634H143.334C142.914 6.86634 142.355 4.90999 141.769 4.90999H139.169V15.9214C139.169 16.5642 140.036 16.5083 140.036 16.8717V16.9276C140.036 17.0952 139.84 17.207 139.589 17.207H136.514C136.235 17.207 136.039 17.0952 136.039 16.9276V16.8717C136.039 16.5083 136.934 16.5642 136.934 15.9214V4.90999H134.334C133.748 4.90999 133.189 6.86634 132.769 6.86634H132.713C132.546 6.86634 132.378 6.6707 132.434 6.39123L133.021 3.98771C133.049 3.84797 133.049 3.79208 133.217 3.79208ZM152.517 10.6113H148.073V16.0891H153.467C154.054 16.0891 154.278 14.8035 154.697 14.8035H154.753C154.921 14.8035 155.06 14.9992 155.032 15.2786L154.781 17.0114C154.753 17.1511 154.725 17.207 154.585 17.207H145.418C145.139 17.207 144.943 17.0952 144.943 16.9276V16.8717C144.943 16.5083 145.838 16.5642 145.838 15.9214V5.07768C145.838 4.43488 144.943 4.49077 144.943 4.12745V4.07156C144.943 3.90387 145.139 3.79208 145.418 3.79208H154.054C154.194 3.79208 154.222 3.84797 154.25 3.98771L154.501 5.72048C154.529 5.99996 154.39 6.19559 154.222 6.19559H154.166C153.747 6.19559 153.523 4.90999 152.936 4.90999H148.073V9.49343H152.517C153.16 9.49343 153.104 8.62705 153.467 8.62705H153.523C153.691 8.62705 153.803 8.82269 153.803 9.07422V11.0306C153.803 11.31 153.691 11.5057 153.523 11.5057H153.467C153.104 11.5057 153.16 10.6113 152.517 10.6113ZM160.283 17.207H157.209C156.929 17.207 156.734 17.0952 156.734 16.9276V16.8717C156.734 16.5083 157.628 16.5642 157.628 15.9214V5.07768C157.628 4.43488 156.734 4.49077 156.734 4.12745V4.07156C156.734 3.90387 156.929 3.79208 157.209 3.79208H162.994C168.053 3.79208 169.143 10.0244 164.699 11.6175L166.907 15.9214C167.186 16.4804 168.109 16.5083 168.109 16.8717V16.9276C168.109 17.0952 167.913 17.207 167.633 17.207H164.252C164 17.207 163.805 17.0952 163.805 16.9276V16.8717C163.805 16.5083 164.643 16.4524 164.364 15.9214L162.379 11.9808H159.864V15.9214C159.864 16.5642 160.758 16.5083 160.758 16.8717V16.9276C160.758 17.0952 160.563 17.207 160.283 17.207ZM159.864 10.8629H162.351C166.18 10.8629 166.152 4.90999 162.575 4.90999H159.864V10.8629ZM170.674 5.07768C170.674 4.49077 169.78 4.54667 169.78 4.12745V4.07156C169.78 3.90387 169.975 3.79208 170.255 3.79208H171.792C172.099 3.79208 172.407 3.82003 172.658 4.12745C176.627 9.01832 177.829 10.6672 180.204 13.7136V5.07768C180.204 4.43488 179.31 4.49077 179.31 4.12745V4.07156C179.31 3.90387 179.506 3.79208 179.785 3.79208H181.741C181.993 3.79208 182.189 3.90387 182.189 4.07156V4.12745C182.189 4.49077 181.322 4.43488 181.322 5.07768V16.9834C181.322 17.1511 181.266 17.207 181.127 17.207H180.651C180.344 17.207 180.037 17.0952 179.841 16.8996L171.792 6.61481V15.9214C171.792 16.5642 172.658 16.5083 172.658 16.8717V16.9276C172.658 17.0952 172.463 17.207 172.211 17.207H170.255C169.975 17.207 169.78 17.0952 169.78 16.9276V16.8717C169.78 16.5083 170.674 16.5642 170.674 15.9214V5.07768ZM169.78 4.07156V4.12745V4.07156ZM169.78 4.07156V4.12745V4.07156ZM191.521 4.40693L195.824 15.9214C196.048 16.5083 196.775 16.5083 196.775 16.8717V16.9276C196.775 17.0952 196.579 17.207 196.3 17.207H193.086C192.834 17.207 192.638 17.0952 192.638 16.9276V16.8717C192.638 16.5083 193.672 16.5083 193.449 15.9214L192.247 12.8192H186.965L185.596 15.9214C185.344 16.5083 186.21 16.5083 186.21 16.8717V16.9276C186.21 17.0952 186.015 17.207 185.763 17.207H183.695C183.416 17.207 183.22 17.0952 183.22 16.9276V16.8717C183.22 16.5083 184.086 16.5363 184.366 15.9214L189.145 5.07768C189.396 4.51872 188.251 4.54667 188.251 4.12745V4.07156C188.251 3.90387 188.446 3.79208 188.726 3.79208H190.151C191.017 3.79208 191.297 3.90387 191.521 4.40693ZM187.468 11.7013H191.828L189.844 6.25149L187.468 11.7013ZM198.201 3.79208H207.871C208.038 3.79208 208.038 3.84797 208.066 3.98771L208.653 6.39123C208.709 6.6707 208.541 6.86634 208.374 6.86634H208.318C207.899 6.86634 207.34 4.90999 206.753 4.90999H204.154V15.9214C204.154 16.5642 205.02 16.5083 205.02 16.8717V16.9276C205.02 17.0952 204.824 17.207 204.573 17.207H201.499C201.219 17.207 201.023 17.0952 201.023 16.9276V16.8717C201.023 16.5083 201.918 16.5642 201.918 15.9214V4.90999H199.319C198.732 4.90999 198.173 6.86634 197.754 6.86634H197.698C197.53 6.86634 197.362 6.6707 197.418 6.39123L198.005 3.98771C198.033 3.84797 198.033 3.79208 198.201 3.79208ZM210.822 15.9214V5.07768C210.822 4.43488 209.927 4.49077 209.927 4.12745V4.07156C209.927 3.90387 210.123 3.79208 210.403 3.79208H213.477C213.728 3.79208 213.924 3.90387 213.924 4.07156V4.12745C213.924 4.49077 213.058 4.43488 213.058 5.07768V15.9214C213.058 16.5642 213.924 16.5083 213.924 16.8717V16.9276C213.924 17.0952 213.728 17.207 213.477 17.207H210.403C210.123 17.207 209.927 17.0952 209.927 16.9276V16.8717C209.927 16.5083 210.822 16.5642 210.822 15.9214ZM221.976 3.37286C226.252 3.37286 228.796 7.11787 228.796 10.4996C228.796 14.0769 226.308 17.6262 221.976 17.6262C217.924 17.6262 215.185 14.0769 215.185 10.4996C215.185 6.95018 217.728 3.37286 221.976 3.37286ZM226.7 11.0585C226.7 7.9563 225.023 4.43488 221.641 4.43488C218.651 4.43488 217.309 7.14582 217.309 9.80086C217.309 12.8192 218.986 16.5922 222.34 16.5922C225.414 16.5922 226.7 13.7974 226.7 11.0585ZM230.937 5.07768C230.937 4.49077 230.042 4.54667 230.042 4.12745V4.07156C230.042 3.90387 230.238 3.79208 230.517 3.79208H232.054C232.362 3.79208 232.669 3.82003 232.921 4.12745C236.889 9.01832 238.091 10.6672 240.467 13.7136V5.07768C240.467 4.43488 239.572 4.49077 239.572 4.12745V4.07156C239.572 3.90387 239.768 3.79208 240.048 3.79208H242.004C242.255 3.79208 242.451 3.90387 242.451 4.07156V4.12745C242.451 4.49077 241.585 4.43488 241.585 5.07768V16.9834C241.585 17.1511 241.529 17.207 241.389 17.207H240.914C240.606 17.207 240.299 17.0952 240.103 16.8996L232.054 6.61481V15.9214C232.054 16.5642 232.921 16.5083 232.921 16.8717V16.9276C232.921 17.0952 232.725 17.207 232.474 17.207H230.517C230.238 17.207 230.042 17.0952 230.042 16.9276V16.8717C230.042 16.5083 230.937 16.5642 230.937 15.9214V5.07768ZM230.042 4.07156V4.12745V4.07156ZM230.042 4.07156V4.12745V4.07156ZM251.783 4.40693L256.087 15.9214C256.311 16.5083 257.037 16.5083 257.037 16.8717V16.9276C257.037 17.0952 256.842 17.207 256.562 17.207H253.348C253.097 17.207 252.901 17.0952 252.901 16.9276V16.8717C252.901 16.5083 253.935 16.5083 253.711 15.9214L252.51 12.8192H247.227L245.858 15.9214C245.607 16.5083 246.473 16.5083 246.473 16.8717V16.9276C246.473 17.0952 246.277 17.207 246.026 17.207H243.958C243.678 17.207 243.482 17.0952 243.482 16.9276V16.8717C243.482 16.5083 244.349 16.5363 244.628 15.9214L249.407 5.07768C249.659 4.51872 248.513 4.54667 248.513 4.12745V4.07156C248.513 3.90387 248.709 3.79208 248.988 3.79208H250.414C251.28 3.79208 251.559 3.90387 251.783 4.40693ZM247.731 11.7013H252.09L250.106 6.25149L247.731 11.7013ZM261.202 5.07768V16.0891H266.065C266.652 16.0891 266.875 14.8035 267.295 14.8035H267.351C267.518 14.8035 267.658 14.9992 267.63 15.2786L267.351 17.207H258.547C258.268 17.207 258.072 17.0952 258.072 16.9276V16.8717C258.072 16.5083 258.966 16.5642 258.966 15.9214V5.07768C258.966 4.43488 258.072 4.49077 258.072 4.12745V4.07156C258.072 3.90387 258.268 3.79208 258.547 3.79208H261.621C261.873 3.79208 262.068 3.90387 262.068 4.07156V4.12745C262.068 4.49077 261.202 4.43488 261.202 5.07768Z" fill="white"/>
<path d="M82.0689 26.0248H83.2315V32.2852H82.0689V26.0248ZM78.8314 32.2852H77.6688V26.0248H78.8314V32.2852ZM82.1583 29.6022H78.733V28.6095H82.1583V29.6022ZM86.9481 32.3478C86.4592 32.3478 86.024 32.2434 85.6424 32.0347C85.2608 31.8201 84.9597 31.528 84.7391 31.1583C84.5185 30.7886 84.4082 30.3683 84.4082 29.8973C84.4082 29.4203 84.5185 29 84.7391 28.6363C84.9597 28.2666 85.2608 27.9775 85.6424 27.7688C86.024 27.5601 86.4592 27.4558 86.9481 27.4558C87.443 27.4558 87.8812 27.5601 88.2628 27.7688C88.6503 27.9775 88.9514 28.2637 89.166 28.6273C89.3866 28.991 89.4969 29.4144 89.4969 29.8973C89.4969 30.3683 89.3866 30.7886 89.166 31.1583C88.9514 31.528 88.6503 31.8201 88.2628 32.0347C87.8812 32.2434 87.443 32.3478 86.9481 32.3478ZM86.9481 31.3908C87.2224 31.3908 87.4668 31.3312 87.6815 31.212C87.8961 31.0927 88.063 30.9198 88.1823 30.6932C88.3075 30.4667 88.3701 30.2014 88.3701 29.8973C88.3701 29.5873 88.3075 29.3219 88.1823 29.1013C88.063 28.8748 87.8961 28.7019 87.6815 28.5826C87.4668 28.4634 87.2253 28.4038 86.957 28.4038C86.6828 28.4038 86.4383 28.4634 86.2237 28.5826C86.015 28.7019 85.8481 28.8748 85.7229 29.1013C85.5977 29.3219 85.5351 29.5873 85.5351 29.8973C85.5351 30.2014 85.5977 30.4667 85.7229 30.6932C85.8481 30.9198 86.015 31.0927 86.2237 31.212C86.4383 31.3312 86.6798 31.3908 86.9481 31.3908ZM96.5937 27.4558C96.9753 27.4558 97.3122 27.5303 97.6043 27.6794C97.9024 27.8284 98.135 28.058 98.3019 28.368C98.4688 28.6721 98.5523 29.0656 98.5523 29.5485V32.2852H97.4344V29.6916C97.4344 29.2683 97.342 28.9523 97.1572 28.7436C96.9723 28.5349 96.707 28.4306 96.3612 28.4306C96.1168 28.4306 95.8991 28.4843 95.7083 28.5916C95.5235 28.6989 95.3774 28.8569 95.2701 29.0656C95.1688 29.2742 95.1181 29.5396 95.1181 29.8615V32.2852H94.0002V29.6916C94.0002 29.2683 93.9078 28.9523 93.7229 28.7436C93.5381 28.5349 93.2728 28.4306 92.927 28.4306C92.6825 28.4306 92.4649 28.4843 92.2741 28.5916C92.0893 28.6989 91.9432 28.8569 91.8359 29.0656C91.7345 29.2742 91.6839 29.5396 91.6839 29.8615V32.2852H90.5659V27.5094H91.6302V28.7794L91.4424 28.4038C91.6034 28.0937 91.8359 27.8582 92.14 27.6972C92.45 27.5363 92.8018 27.4558 93.1953 27.4558C93.6424 27.4558 94.03 27.5661 94.3579 27.7867C94.6918 28.0073 94.9124 28.3412 95.0197 28.7883L94.5815 28.6363C94.7365 28.2786 94.9929 27.9924 95.3506 27.7777C95.7083 27.5631 96.1227 27.4558 96.5937 27.4558ZM102.234 32.3478C101.704 32.3478 101.239 32.2434 100.839 32.0347C100.446 31.8201 100.139 31.528 99.9181 31.1583C99.7034 30.7886 99.5961 30.3683 99.5961 29.8973C99.5961 29.4203 99.7004 29 99.9091 28.6363C100.124 28.2666 100.416 27.9775 100.786 27.7688C101.161 27.5601 101.587 27.4558 102.064 27.4558C102.529 27.4558 102.944 27.5571 103.308 27.7598C103.671 27.9626 103.957 28.2487 104.166 28.6184C104.375 28.9881 104.479 29.4233 104.479 29.9241C104.479 29.9718 104.476 30.0255 104.47 30.0851C104.47 30.1447 104.467 30.2014 104.461 30.255H100.481V29.5127H103.871L103.433 29.7453C103.439 29.471 103.382 29.2295 103.263 29.0209C103.144 28.8122 102.98 28.6482 102.771 28.529C102.568 28.4097 102.333 28.3501 102.064 28.3501C101.79 28.3501 101.549 28.4097 101.34 28.529C101.137 28.6482 100.976 28.8152 100.857 29.0298C100.744 29.2385 100.687 29.4859 100.687 29.7721V29.951C100.687 30.2371 100.753 30.4905 100.884 30.7111C101.015 30.9317 101.2 31.1017 101.438 31.2209C101.677 31.3401 101.951 31.3998 102.261 31.3998C102.529 31.3998 102.771 31.358 102.986 31.2746C103.2 31.1911 103.391 31.0599 103.558 30.8811L104.157 31.5697C103.943 31.8201 103.671 32.0139 103.343 32.151C103.021 32.2822 102.652 32.3478 102.234 32.3478ZM107.247 32.2852L110.064 26.0248H111.208L114.034 32.2852H112.818L110.395 26.6419H110.86L108.445 32.2852H107.247ZM108.543 30.8363L108.856 29.9241H112.237L112.55 30.8363H108.543ZM115.534 32.2852L113.781 27.5094H114.837L116.339 31.7217H115.838L117.412 27.5094H118.351L119.881 31.7217H119.389L120.936 27.5094H121.929L120.167 32.2852H119.094L117.698 28.5558H118.029L116.607 32.2852H115.534ZM125.491 32.2852V31.3193L125.428 31.1136V29.4233C125.428 29.0954 125.33 28.842 125.133 28.6631C124.937 28.4783 124.638 28.3859 124.239 28.3859C123.971 28.3859 123.705 28.4276 123.443 28.5111C123.187 28.5946 122.969 28.7108 122.79 28.8599L122.352 28.046C122.608 27.8493 122.912 27.7032 123.264 27.6078C123.622 27.5065 123.992 27.4558 124.373 27.4558C125.065 27.4558 125.598 27.6227 125.974 27.9566C126.356 28.2845 126.546 28.7943 126.546 29.4859V32.2852H125.491ZM123.989 32.3478C123.631 32.3478 123.318 32.2881 123.05 32.1689C122.781 32.0437 122.573 31.8738 122.424 31.6591C122.28 31.4385 122.209 31.1911 122.209 30.9168C122.209 30.6485 122.271 30.4071 122.397 30.1924C122.528 29.9778 122.74 29.8079 123.032 29.6827C123.324 29.5574 123.711 29.4948 124.194 29.4948H125.581V30.2371H124.275C123.893 30.2371 123.637 30.2997 123.506 30.4249C123.374 30.5442 123.309 30.6932 123.309 30.8721C123.309 31.0748 123.389 31.2358 123.55 31.3551C123.711 31.4743 123.935 31.5339 124.221 31.5339C124.495 31.5339 124.74 31.4713 124.954 31.3461C125.175 31.2209 125.333 31.0361 125.428 30.7916L125.616 31.4624C125.509 31.7426 125.315 31.9602 125.035 32.1152C124.761 32.2703 124.412 32.3478 123.989 32.3478ZM128.287 34.0828C128.055 34.0828 127.822 34.044 127.59 33.9665C127.357 33.889 127.163 33.7817 127.008 33.6445L127.456 32.8218C127.569 32.9231 127.697 33.0036 127.84 33.0632C127.983 33.1228 128.129 33.1527 128.278 33.1527C128.481 33.1527 128.645 33.102 128.77 33.0006C128.895 32.8993 129.012 32.7293 129.119 32.4909L129.396 31.8648L129.486 31.7307L131.292 27.5094H132.365L130.13 32.6697C129.981 33.0275 129.814 33.3107 129.629 33.5193C129.45 33.728 129.247 33.8741 129.021 33.9576C128.8 34.041 128.556 34.0828 128.287 34.0828ZM129.271 32.4551L127.116 27.5094H128.278L130.031 31.6323L129.271 32.4551ZM136.707 28.9046H139.829V29.8884H136.707V28.9046ZM136.806 32.2852H135.643V26.0248H140.213V26.9997H136.806V32.2852ZM141.143 32.2852V27.5094H142.207V28.8241L142.082 28.4395C142.225 28.1176 142.448 27.8731 142.753 27.7062C143.063 27.5392 143.447 27.4558 143.906 27.4558V28.52C143.859 28.5081 143.814 28.5021 143.772 28.5021C143.73 28.4962 143.689 28.4932 143.647 28.4932C143.224 28.4932 142.887 28.6184 142.636 28.8688C142.386 29.1133 142.261 29.4799 142.261 29.9688V32.2852H141.143ZM146.957 32.3478C146.468 32.3478 146.033 32.2434 145.652 32.0347C145.27 31.8201 144.969 31.528 144.748 31.1583C144.528 30.7886 144.417 30.3683 144.417 29.8973C144.417 29.4203 144.528 29 144.748 28.6363C144.969 28.2666 145.27 27.9775 145.652 27.7688C146.033 27.5601 146.468 27.4558 146.957 27.4558C147.452 27.4558 147.89 27.5601 148.272 27.7688C148.66 27.9775 148.961 28.2637 149.175 28.6273C149.396 28.991 149.506 29.4144 149.506 29.8973C149.506 30.3683 149.396 30.7886 149.175 31.1583C148.961 31.528 148.66 31.8201 148.272 32.0347C147.89 32.2434 147.452 32.3478 146.957 32.3478ZM146.957 31.3908C147.232 31.3908 147.476 31.3312 147.691 31.212C147.905 31.0927 148.072 30.9198 148.191 30.6932C148.317 30.4667 148.379 30.2014 148.379 29.8973C148.379 29.5873 148.317 29.3219 148.191 29.1013C148.072 28.8748 147.905 28.7019 147.691 28.5826C147.476 28.4634 147.235 28.4038 146.966 28.4038C146.692 28.4038 146.448 28.4634 146.233 28.5826C146.024 28.7019 145.857 28.8748 145.732 29.1013C145.607 29.3219 145.544 29.5873 145.544 29.8973C145.544 30.2014 145.607 30.4667 145.732 30.6932C145.857 30.9198 146.024 31.0927 146.233 31.212C146.448 31.3312 146.689 31.3908 146.957 31.3908ZM156.603 27.4558C156.985 27.4558 157.321 27.5303 157.614 27.6794C157.912 27.8284 158.144 28.058 158.311 28.368C158.478 28.6721 158.562 29.0656 158.562 29.5485V32.2852H157.444V29.6916C157.444 29.2683 157.351 28.9523 157.166 28.7436C156.982 28.5349 156.716 28.4306 156.37 28.4306C156.126 28.4306 155.908 28.4843 155.718 28.5916C155.533 28.6989 155.387 28.8569 155.279 29.0656C155.178 29.2742 155.127 29.5396 155.127 29.8615V32.2852H154.009V29.6916C154.009 29.2683 153.917 28.9523 153.732 28.7436C153.547 28.5349 153.282 28.4306 152.936 28.4306C152.692 28.4306 152.474 28.4843 152.283 28.5916C152.098 28.6989 151.952 28.8569 151.845 29.0656C151.744 29.2742 151.693 29.5396 151.693 29.8615V32.2852H150.575V27.5094H151.639V28.7794L151.452 28.4038C151.613 28.0937 151.845 27.8582 152.149 27.6972C152.459 27.5363 152.811 27.4558 153.204 27.4558C153.652 27.4558 154.039 27.5661 154.367 27.7867C154.701 28.0073 154.922 28.3412 155.029 28.7883L154.591 28.6363C154.746 28.2786 155.002 27.9924 155.36 27.7777C155.718 27.5631 156.132 27.4558 156.603 27.4558ZM166.969 26.0248H168.132V32.2852H166.969V26.0248ZM163.732 32.2852H162.569V26.0248H163.732V32.2852ZM167.059 29.6022H163.633V28.6095H167.059V29.6022ZM171.848 32.3478C171.359 32.3478 170.924 32.2434 170.543 32.0347C170.161 31.8201 169.86 31.528 169.639 31.1583C169.419 30.7886 169.308 30.3683 169.308 29.8973C169.308 29.4203 169.419 29 169.639 28.6363C169.86 28.2666 170.161 27.9775 170.543 27.7688C170.924 27.5601 171.359 27.4558 171.848 27.4558C172.343 27.4558 172.781 27.5601 173.163 27.7688C173.551 27.9775 173.852 28.2637 174.066 28.6273C174.287 28.991 174.397 29.4144 174.397 29.8973C174.397 30.3683 174.287 30.7886 174.066 31.1583C173.852 31.528 173.551 31.8201 173.163 32.0347C172.781 32.2434 172.343 32.3478 171.848 32.3478ZM171.848 31.3908C172.123 31.3908 172.367 31.3312 172.582 31.212C172.796 31.0927 172.963 30.9198 173.083 30.6932C173.208 30.4667 173.27 30.2014 173.27 29.8973C173.27 29.5873 173.208 29.3219 173.083 29.1013C172.963 28.8748 172.796 28.7019 172.582 28.5826C172.367 28.4634 172.126 28.4038 171.857 28.4038C171.583 28.4038 171.339 28.4634 171.124 28.5826C170.915 28.7019 170.748 28.8748 170.623 29.1013C170.498 29.3219 170.435 29.5873 170.435 29.8973C170.435 30.2014 170.498 30.4667 170.623 30.6932C170.748 30.9198 170.915 31.0927 171.124 31.212C171.339 31.3312 171.58 31.3908 171.848 31.3908ZM181.494 27.4558C181.876 27.4558 182.212 27.5303 182.505 27.6794C182.803 27.8284 183.035 28.058 183.202 28.368C183.369 28.6721 183.453 29.0656 183.453 29.5485V32.2852H182.335V29.6916C182.335 29.2683 182.242 28.9523 182.057 28.7436C181.873 28.5349 181.607 28.4306 181.261 28.4306C181.017 28.4306 180.799 28.4843 180.609 28.5916C180.424 28.6989 180.278 28.8569 180.17 29.0656C180.069 29.2742 180.018 29.5396 180.018 29.8615V32.2852H178.9V29.6916C178.9 29.2683 178.808 28.9523 178.623 28.7436C178.438 28.5349 178.173 28.4306 177.827 28.4306C177.583 28.4306 177.365 28.4843 177.174 28.5916C176.99 28.6989 176.843 28.8569 176.736 29.0656C176.635 29.2742 176.584 29.5396 176.584 29.8615V32.2852H175.466V27.5094H176.53V28.7794L176.343 28.4038C176.504 28.0937 176.736 27.8582 177.04 27.6972C177.35 27.5363 177.702 27.4558 178.096 27.4558C178.543 27.4558 178.93 27.5661 179.258 27.7867C179.592 28.0073 179.813 28.3412 179.92 28.7883L179.482 28.6363C179.637 28.2786 179.893 27.9924 180.251 27.7777C180.609 27.5631 181.023 27.4558 181.494 27.4558ZM187.135 32.3478C186.604 32.3478 186.139 32.2434 185.739 32.0347C185.346 31.8201 185.039 31.528 184.818 31.1583C184.604 30.7886 184.496 30.3683 184.496 29.8973C184.496 29.4203 184.601 29 184.809 28.6363C185.024 28.2666 185.316 27.9775 185.686 27.7688C186.061 27.5601 186.488 27.4558 186.965 27.4558C187.43 27.4558 187.844 27.5571 188.208 27.7598C188.571 27.9626 188.858 28.2487 189.066 28.6184C189.275 28.9881 189.379 29.4233 189.379 29.9241C189.379 29.9718 189.376 30.0255 189.37 30.0851C189.37 30.1447 189.367 30.2014 189.361 30.255H185.382V29.5127H188.771L188.333 29.7453C188.339 29.471 188.282 29.2295 188.163 29.0209C188.044 28.8122 187.88 28.6482 187.671 28.529C187.468 28.4097 187.233 28.3501 186.965 28.3501C186.69 28.3501 186.449 28.4097 186.24 28.529C186.038 28.6482 185.877 28.8152 185.757 29.0298C185.644 29.2385 185.587 29.4859 185.587 29.7721V29.951C185.587 30.2371 185.653 30.4905 185.784 30.7111C185.915 30.9317 186.1 31.1017 186.339 31.2209C186.577 31.3401 186.851 31.3998 187.161 31.3998C187.43 31.3998 187.671 31.358 187.886 31.2746C188.1 31.1911 188.291 31.0599 188.458 30.8811L189.057 31.5697C188.843 31.8201 188.571 32.0139 188.244 32.151C187.922 32.2822 187.552 32.3478 187.135 32.3478Z" fill="white"/>
</svg>
