<svg width="24" height="25" viewBox="0 0 24 25" fill="none" xmlns="http://www.w3.org/2000/svg">
<path d="M21.8055 10.5415H21V10.5H12V14.5H17.6515C16.827 16.8285 14.6115 18.5 12 18.5C8.6865 18.5 6 15.8135 6 12.5C6 9.1865 8.6865 6.5 12 6.5C13.5295 6.5 14.921 7.077 15.9805 8.0195L18.809 5.191C17.023 3.5265 14.634 2.5 12 2.5C6.4775 2.5 2 6.9775 2 12.5C2 18.0225 6.4775 22.5 12 22.5C17.5225 22.5 22 18.0225 22 12.5C22 11.8295 21.931 11.175 21.8055 10.5415Z" fill="#FFC107"/>
<path d="M3.15625 7.8455L6.44175 10.255C7.33075 8.054 9.48375 6.5 12.0033 6.5C13.5328 6.5 14.9243 7.077 15.9838 8.0195L18.8123 5.191C17.0262 3.5265 14.6372 2.5 12.0033 2.5C8.16225 2.5 4.83125 4.6685 3.15625 7.8455Z" fill="#FF3D00"/>
<path d="M11.9963 22.5003C14.5793 22.5003 16.9263 21.5118 18.7008 19.9043L15.6058 17.2853C14.5682 18.0749 13.3 18.5017 11.9963 18.5003C9.39525 18.5003 7.18675 16.8418 6.35475 14.5273L3.09375 17.0398C4.74875 20.2783 8.10975 22.5003 11.9963 22.5003Z" fill="#4CAF50"/>
<path d="M21.8055 10.5415H21V10.5H12V14.5H17.6515C17.2571 15.6082 16.5467 16.5766 15.608 17.2855L15.6095 17.2845L18.7045 19.9035C18.4855 20.1025 22 17.5 22 12.5C22 11.8295 21.931 11.175 21.8055 10.5415Z" fill="#1976D2"/>
</svg>
