<svg width="402" height="53" viewBox="0 0 402 53" fill="none" xmlns="http://www.w3.org/2000/svg">
<path d="M57.1411 1.67079C57.0182 1.70766 56.9813 2.24854 56.9813 3.73594C56.9813 5.21104 56.9444 5.7765 56.8338 5.85025C56.7477 5.89942 52.8387 5.97318 48.1429 6.01006C42.5253 6.04693 39.5996 6.10839 39.5627 6.19444C39.5382 6.2682 41.3329 8.14896 43.5455 10.3862C48.2659 15.1434 63.4472 30.4845 66.5941 33.6683C67.7987 34.8975 68.8928 35.8932 69.0526 35.9301C69.6057 36.0407 95.2357 36.1145 95.5307 36.0039L95.8257 35.8809V33.3118C95.8257 31.0746 95.8011 30.7304 95.6168 30.5829C95.4324 30.4231 94.535 30.3862 89.7286 30.3493H89.1017L85.1558 26.4403C82.98 24.3014 79.2554 20.6136 76.8706 18.2534L72.5314 13.9633L72.4945 7.93999C72.4699 3.7974 72.4207 1.85518 72.3224 1.74454C72.224 1.62162 70.7735 1.58474 64.7379 1.59703C60.6445 1.59703 57.2148 1.63391 57.1411 1.67079ZM70.2326 3.88345C70.2818 3.9572 70.3187 5.39543 70.3187 7.07951C70.3187 10.1035 70.3187 10.1281 70.0483 10.1649C69.8762 10.1895 69.6303 10.0297 69.2615 9.62406C68.9665 9.30446 68.3765 8.67754 67.9462 8.23501C65.6352 5.83796 65.6598 5.87484 65.7827 4.69475C65.8565 4.04325 65.918 3.88345 66.1269 3.7851C66.5203 3.6253 70.122 3.69905 70.2326 3.88345Z" fill="url(#paint0_linear_1943_10914)"/>
<path d="M26.7512 9.88332C24.686 11.9362 19.2281 17.3818 14.6061 21.9669L6.19804 30.3135L5.09171 30.3873C4.48937 30.4242 3.22324 30.4242 2.28901 30.3873C-0.1695 30.2767 0.00259547 30.0677 0.00259547 33.2023C0.014888 35.0707 0.0517656 35.7714 0.174691 35.9189C0.309909 36.0787 0.838489 36.1033 4.23123 36.091C6.73891 36.0787 8.20172 36.0173 8.34923 35.9312C8.47216 35.8575 13.4383 30.965 19.3879 25.0523C25.3498 19.1519 30.2791 14.2718 30.3529 14.2226C30.4389 14.1734 30.5496 14.1242 30.5987 14.1242C30.6848 14.1242 47.292 30.7069 48.0296 31.5305C48.2017 31.7272 48.7548 32.2803 49.2588 32.7597C49.7628 33.2514 50.6233 34.1242 51.1887 34.702C51.7419 35.2797 52.3074 35.8083 52.4303 35.8821C52.5778 35.9558 54.1144 36.005 56.4991 36.005C59.7935 36.005 60.3221 35.9804 60.3836 35.8206C60.4327 35.6854 57.3473 32.5385 50.2422 25.458C44.6245 19.8649 37.962 13.2269 35.442 10.7069C32.922 8.19924 30.7831 6.13409 30.6848 6.13409C30.5864 6.13409 28.8163 7.81817 26.7512 9.88332Z" fill="url(#paint1_linear_1943_10914)"/>
<path d="M25.269 26.2856L24.9617 26.3716L24.9248 28.1909C24.9126 29.3218 24.9371 30.0717 25.0232 30.17C25.1092 30.2684 25.6624 30.3175 26.8671 30.3298C28.2561 30.3421 28.6126 30.3052 28.7724 30.1577C28.9199 30.0102 28.9568 29.6292 28.9568 28.1909V26.4208L28.6372 26.2979C28.293 26.1627 25.7484 26.1504 25.269 26.2856Z" fill="url(#paint2_linear_1943_10914)"/>
<path d="M31.2376 26.3479C31.0286 26.4954 31.004 26.7044 30.9794 28.2041C30.9425 30.4659 30.8811 30.3921 33.0814 30.3307C34.1632 30.3061 34.7778 30.2446 34.8761 30.1463C35.0974 29.925 35.0605 26.4216 34.8393 26.2864C34.5565 26.102 31.4957 26.1512 31.2376 26.3479Z" fill="url(#paint3_linear_1943_10914)"/>
<path d="M25.76 31.8167L24.9609 31.8905V33.8573V35.8241L26.7188 35.861C27.7882 35.8732 28.5627 35.8364 28.7102 35.7626C28.9314 35.6397 28.956 35.5045 28.956 33.9433C28.956 32.7755 28.9068 32.1855 28.8085 32.038C28.6241 31.8044 27.1367 31.6938 25.76 31.8167Z" fill="url(#paint4_linear_1943_10914)"/>
<path d="M31.1591 31.9646C30.8764 32.2473 30.8887 35.5909 31.1714 35.763C31.4173 35.9228 34.8223 35.9228 34.9206 35.763C35.0559 35.554 35.0436 32.0875 34.9084 31.9523C34.8469 31.8908 34.011 31.8171 33.0768 31.8048C31.6385 31.7679 31.3189 31.8048 31.1591 31.9646Z" fill="url(#paint5_linear_1943_10914)"/>
<path d="M47.3384 44.3606C43.6629 44.6925 41.61 44.9383 41.2044 45.0858C41.02 45.1596 40.3193 45.2825 39.6801 45.344C39.0286 45.4177 38.4386 45.5284 38.3648 45.6021C38.2173 45.7619 41.1061 45.6759 42.6672 45.4792C44.4373 45.2579 50.4607 45.0736 53.2388 45.1596C56.0046 45.2334 59.5572 45.5653 61.2535 45.9094C62.5811 46.1676 65.0273 46.7822 65.8387 47.0527C68.6536 48.0115 69.1822 48.1344 72.2922 48.5401C74.3697 48.8228 79.1269 48.8965 80.9585 48.6753C81.5362 48.6138 82.5073 48.5155 83.1097 48.4786C83.7243 48.4294 84.9044 48.2819 85.7526 48.159C86.6008 48.0238 87.6333 47.864 88.039 47.8025C88.4569 47.741 88.9363 47.6304 89.1207 47.5566C89.2928 47.4952 89.7845 47.3846 90.2025 47.3108C90.6204 47.2493 91.0138 47.1387 91.0875 47.0649C91.3088 46.8314 89.4158 46.9912 85.3838 47.5198C83.0236 47.8271 74.3205 47.8271 72.3537 47.5075C70.6696 47.237 67.5965 46.4749 66.3918 46.0324C63.2203 44.8523 59.004 44.2377 53.4846 44.1762C50.6942 44.1393 49.3666 44.1762 47.3384 44.3606Z" fill="url(#paint6_linear_1943_10914)"/>
<path d="M34.9866 49.6017C32.3191 49.9213 29.9344 50.4376 28.1028 51.0522C25.6566 51.8881 23.5546 52.2446 19.5595 52.4782C17.0395 52.6257 11.176 52.3307 8.74203 51.9373C7.62341 51.7529 5.80411 51.5316 4.41506 51.4087C3.92335 51.3595 3.64062 51.3841 3.64062 51.4702C3.64062 51.63 3.94794 51.7406 4.42735 51.7406C4.63632 51.7406 5.12802 51.8512 5.52138 51.9865C5.90245 52.1217 6.38186 52.2323 6.57854 52.2323C6.77522 52.2323 7.40214 52.3307 7.9676 52.4659C8.92642 52.6871 10.2294 52.8838 13.0444 53.2403C14.7285 53.4616 22.5589 53.4616 23.7389 53.2403C24.2183 53.1543 25.0665 53.0067 25.6443 52.8961C26.222 52.7855 26.935 52.6257 27.2423 52.5273C31.3972 51.2243 33.4869 50.8064 37.396 50.5114C39.498 50.3638 44.8944 50.3516 47.1562 50.5114C50.8194 50.7572 52.442 50.8924 53.6221 51.0645C54.3105 51.1629 55.1587 51.2489 55.5152 51.2489C56.5232 51.2489 56.0929 50.9539 54.8145 50.7572C54.2122 50.6712 53.3271 50.4991 52.8231 50.3638C52.3191 50.2409 51.6799 50.1426 51.4095 50.1426C51.1267 50.1426 50.5736 50.0811 50.1679 50.0074C48.0536 49.6386 45.5705 49.4911 41.0714 49.4542C37.6049 49.4296 36.0315 49.4665 34.9866 49.6017Z" fill="url(#paint7_linear_1943_10914)"/>
<path d="M118.682 27.9986C114.765 28.0394 112.44 25.3062 112.44 23.756V21.2267C112.44 20.8188 112.603 20.5332 112.848 20.5332H112.93C113.786 20.5332 114.276 26.4484 118.682 26.4484C121.048 26.4484 122.965 24.6535 122.965 22.3282C122.965 19.8805 120.477 19.391 118.029 18.0448C115.663 16.7393 112.807 15.4339 112.807 12.4559C112.807 9.35553 115.867 7.19342 119.212 7.19342C123.128 7.19342 124.638 9.39633 124.638 10.2938V12.8231C124.638 13.231 124.474 13.5166 124.23 13.5166H124.148C122.924 13.5166 123.291 8.78441 119.212 8.78441C117.539 8.78441 115.826 10.0082 115.826 11.64C115.826 13.639 117.866 14.2509 119.783 15.2707C122.516 16.7393 125.984 17.8 125.984 21.6755C125.984 25.4694 122.312 27.9986 118.682 27.9986ZM139.01 8.70282L145.292 25.5102C145.618 26.3669 146.679 26.3669 146.679 26.8972V26.9788C146.679 27.2235 146.394 27.3867 145.986 27.3867H141.294C140.927 27.3867 140.642 27.2235 140.642 26.9788V26.8972C140.642 26.3669 142.151 26.3669 141.825 25.5102L140.07 20.982H132.36L130.361 25.5102C129.994 26.3669 131.259 26.3669 131.259 26.8972V26.9788C131.259 27.2235 130.973 27.3867 130.606 27.3867H127.587C127.179 27.3867 126.894 27.2235 126.894 26.9788V26.8972C126.894 26.3669 128.158 26.4076 128.566 25.5102L135.542 9.68189C135.909 8.866 134.237 8.90679 134.237 8.29487V8.21328C134.237 7.96852 134.522 7.80534 134.93 7.80534H137.011C138.275 7.80534 138.683 7.96852 139.01 8.70282ZM133.095 19.3502H139.458L136.562 11.3953L133.095 19.3502ZM149.495 25.5102V9.68189C149.495 8.74361 148.189 8.8252 148.189 8.29487V8.21328C148.189 7.96852 148.475 7.80534 148.883 7.80534H153.37C153.738 7.80534 154.023 7.96852 154.023 8.21328V8.29487C154.023 8.8252 152.758 8.74361 152.758 9.68189V25.5102C152.758 26.4484 154.023 26.3669 154.023 26.8972V26.9788C154.023 27.2235 153.738 27.3867 153.37 27.3867H148.883C148.475 27.3867 148.189 27.2235 148.189 26.9788V26.8972C148.189 26.3669 149.495 26.4484 149.495 25.5102ZM166.028 25.5102V9.68189C166.028 8.74361 164.722 8.8252 164.722 8.29487V8.21328C164.722 7.96852 165.008 7.80534 165.416 7.80534H169.903C170.27 7.80534 170.556 7.96852 170.556 8.21328V8.29487C170.556 8.8252 169.291 8.74361 169.291 9.68189V25.5102C169.291 26.4484 170.556 26.3669 170.556 26.8972V26.9788C170.556 27.2235 170.27 27.3867 169.903 27.3867H165.416C165.008 27.3867 164.722 27.2235 164.722 26.9788V26.8972C164.722 26.3669 166.028 26.4484 166.028 25.5102ZM174.314 9.68189C174.314 8.8252 173.009 8.90679 173.009 8.29487V8.21328C173.009 7.96852 173.294 7.80534 173.702 7.80534H175.946C176.395 7.80534 176.843 7.84613 177.211 8.29487C183.003 15.4339 184.758 17.8408 188.225 22.2874V9.68189C188.225 8.74361 186.92 8.8252 186.92 8.29487V8.21328C186.92 7.96852 187.205 7.80534 187.613 7.80534H190.469C190.836 7.80534 191.122 7.96852 191.122 8.21328V8.29487C191.122 8.8252 189.857 8.74361 189.857 9.68189V27.0604C189.857 27.3051 189.775 27.3867 189.571 27.3867H188.878C188.429 27.3867 187.98 27.2235 187.695 26.938L175.946 11.9256V25.5102C175.946 26.4484 177.211 26.3669 177.211 26.8972V26.9788C177.211 27.2235 176.925 27.3867 176.558 27.3867H173.702C173.294 27.3867 173.009 27.2235 173.009 26.9788V26.8972C173.009 26.3669 174.314 26.4484 174.314 25.5102V9.68189ZM173.009 8.21328V8.29487V8.21328ZM173.009 8.21328V8.29487V8.21328ZM194.137 7.80534H208.251C208.496 7.80534 208.496 7.88693 208.537 8.0909L209.394 11.5992C209.475 12.0072 209.231 12.2927 208.986 12.2927H208.904C208.292 12.2927 207.476 9.43712 206.62 9.43712H202.826V25.5102C202.826 26.4484 204.09 26.3669 204.09 26.8972V26.9788C204.09 27.2235 203.805 27.3867 203.438 27.3867H198.95C198.542 27.3867 198.257 27.2235 198.257 26.9788V26.8972C198.257 26.3669 199.562 26.4484 199.562 25.5102V9.43712H195.768C194.912 9.43712 194.096 12.2927 193.484 12.2927H193.402C193.157 12.2927 192.913 12.0072 192.994 11.5992L193.851 8.0909C193.892 7.88693 193.892 7.80534 194.137 7.80534ZM222.309 17.7592H215.823V25.7549H223.696C224.553 25.7549 224.879 23.8784 225.491 23.8784H225.573C225.817 23.8784 226.021 24.1639 225.98 24.5719L225.613 27.1012C225.573 27.3051 225.532 27.3867 225.328 27.3867H211.947C211.539 27.3867 211.254 27.2235 211.254 26.9788V26.8972C211.254 26.3669 212.559 26.4484 212.559 25.5102V9.68189C212.559 8.74361 211.254 8.8252 211.254 8.29487V8.21328C211.254 7.96852 211.539 7.80534 211.947 7.80534H224.553C224.757 7.80534 224.797 7.88693 224.838 8.0909L225.205 10.6202C225.246 11.0281 225.042 11.3137 224.797 11.3137H224.716C224.104 11.3137 223.778 9.43712 222.921 9.43712H215.823V16.1274H222.309C223.247 16.1274 223.166 14.8628 223.696 14.8628H223.778C224.022 14.8628 224.186 15.1484 224.186 15.5155V18.3711C224.186 18.7791 224.022 19.0646 223.778 19.0646H223.696C223.166 19.0646 223.247 17.7592 222.309 17.7592ZM233.645 27.3867H229.157C228.749 27.3867 228.464 27.2235 228.464 26.9788V26.8972C228.464 26.3669 229.769 26.4484 229.769 25.5102V9.68189C229.769 8.74361 228.464 8.8252 228.464 8.29487V8.21328C228.464 7.96852 228.749 7.80534 229.157 7.80534H237.602C244.986 7.80534 246.577 16.9025 240.09 19.2278L243.313 25.5102C243.721 26.3261 245.067 26.3669 245.067 26.8972V26.9788C245.067 27.2235 244.782 27.3867 244.374 27.3867H239.438C239.07 27.3867 238.785 27.2235 238.785 26.9788V26.8972C238.785 26.3669 240.009 26.2853 239.601 25.5102L236.704 19.7581H233.033V25.5102C233.033 26.4484 234.338 26.3669 234.338 26.8972V26.9788C234.338 27.2235 234.053 27.3867 233.645 27.3867ZM233.033 18.1264H236.664C242.252 18.1264 242.212 9.43712 236.99 9.43712H233.033V18.1264ZM248.812 9.68189C248.812 8.8252 247.507 8.90679 247.507 8.29487V8.21328C247.507 7.96852 247.792 7.80534 248.2 7.80534H250.444C250.893 7.80534 251.341 7.84613 251.708 8.29487C257.501 15.4339 259.255 17.8408 262.723 22.2874V9.68189C262.723 8.74361 261.418 8.8252 261.418 8.29487V8.21328C261.418 7.96852 261.703 7.80534 262.111 7.80534H264.967C265.334 7.80534 265.619 7.96852 265.619 8.21328V8.29487C265.619 8.8252 264.355 8.74361 264.355 9.68189V27.0604C264.355 27.3051 264.273 27.3867 264.069 27.3867H263.376C262.927 27.3867 262.478 27.2235 262.193 26.938L250.444 11.9256V25.5102C250.444 26.4484 251.708 26.3669 251.708 26.8972V26.9788C251.708 27.2235 251.423 27.3867 251.056 27.3867H248.2C247.792 27.3867 247.507 27.2235 247.507 26.9788V26.8972C247.507 26.3669 248.812 26.4484 248.812 25.5102V9.68189ZM247.507 8.21328V8.29487V8.21328ZM247.507 8.21328V8.29487V8.21328ZM279.241 8.70282L285.523 25.5102C285.85 26.3669 286.91 26.3669 286.91 26.8972V26.9788C286.91 27.2235 286.625 27.3867 286.217 27.3867H281.525C281.158 27.3867 280.873 27.2235 280.873 26.9788V26.8972C280.873 26.3669 282.382 26.3669 282.056 25.5102L280.302 20.982H272.591L270.593 25.5102C270.225 26.3669 271.49 26.3669 271.49 26.8972V26.9788C271.49 27.2235 271.204 27.3867 270.837 27.3867H267.818C267.411 27.3867 267.125 27.2235 267.125 26.9788V26.8972C267.125 26.3669 268.39 26.4076 268.798 25.5102L275.773 9.68189C276.141 8.866 274.468 8.90679 274.468 8.29487V8.21328C274.468 7.96852 274.754 7.80534 275.162 7.80534H277.242C278.507 7.80534 278.915 7.96852 279.241 8.70282ZM273.326 19.3502H279.69L276.793 11.3953L273.326 19.3502ZM288.992 7.80534H303.107C303.351 7.80534 303.351 7.88693 303.392 8.0909L304.249 11.5992C304.331 12.0072 304.086 12.2927 303.841 12.2927H303.759C303.148 12.2927 302.332 9.43712 301.475 9.43712H297.681V25.5102C297.681 26.4484 298.946 26.3669 298.946 26.8972V26.9788C298.946 27.2235 298.66 27.3867 298.293 27.3867H293.806C293.398 27.3867 293.112 27.2235 293.112 26.9788V26.8972C293.112 26.3669 294.417 26.4484 294.417 25.5102V9.43712H290.624C289.767 9.43712 288.951 12.2927 288.339 12.2927H288.257C288.013 12.2927 287.768 12.0072 287.85 11.5992L288.706 8.0909C288.747 7.88693 288.747 7.80534 288.992 7.80534ZM307.414 25.5102V9.68189C307.414 8.74361 306.109 8.8252 306.109 8.29487V8.21328C306.109 7.96852 306.394 7.80534 306.802 7.80534H311.29C311.657 7.80534 311.943 7.96852 311.943 8.21328V8.29487C311.943 8.8252 310.678 8.74361 310.678 9.68189V25.5102C310.678 26.4484 311.943 26.3669 311.943 26.8972V26.9788C311.943 27.2235 311.657 27.3867 311.29 27.3867H306.802C306.394 27.3867 306.109 27.2235 306.109 26.9788V26.8972C306.109 26.3669 307.414 26.4484 307.414 25.5102ZM323.696 7.19342C329.938 7.19342 333.65 12.6599 333.65 17.596C333.65 22.8177 330.02 27.9986 323.696 27.9986C317.781 27.9986 313.783 22.8177 313.783 17.596C313.783 12.4151 317.496 7.19342 323.696 7.19342ZM330.591 18.4119C330.591 13.8837 328.143 8.74361 323.207 8.74361C318.842 8.74361 316.884 12.7007 316.884 16.5762C316.884 20.982 319.331 26.4892 324.227 26.4892C328.714 26.4892 330.591 22.4098 330.591 18.4119ZM336.775 9.68189C336.775 8.8252 335.47 8.90679 335.47 8.29487V8.21328C335.47 7.96852 335.755 7.80534 336.163 7.80534H338.407C338.856 7.80534 339.305 7.84613 339.672 8.29487C345.465 15.4339 347.219 17.8408 350.686 22.2874V9.68189C350.686 8.74361 349.381 8.8252 349.381 8.29487V8.21328C349.381 7.96852 349.666 7.80534 350.074 7.80534H352.93C353.297 7.80534 353.583 7.96852 353.583 8.21328V8.29487C353.583 8.8252 352.318 8.74361 352.318 9.68189V27.0604C352.318 27.3051 352.236 27.3867 352.032 27.3867H351.339C350.89 27.3867 350.441 27.2235 350.156 26.938L338.407 11.9256V25.5102C338.407 26.4484 339.672 26.3669 339.672 26.8972V26.9788C339.672 27.2235 339.386 27.3867 339.019 27.3867H336.163C335.755 27.3867 335.47 27.2235 335.47 26.9788V26.8972C335.47 26.3669 336.775 26.4484 336.775 25.5102V9.68189ZM335.47 8.21328V8.29487V8.21328ZM335.47 8.21328V8.29487V8.21328ZM367.204 8.70282L373.487 25.5102C373.813 26.3669 374.874 26.3669 374.874 26.8972V26.9788C374.874 27.2235 374.588 27.3867 374.18 27.3867H369.489C369.122 27.3867 368.836 27.2235 368.836 26.9788V26.8972C368.836 26.3669 370.345 26.3669 370.019 25.5102L368.265 20.982H360.555L358.556 25.5102C358.189 26.3669 359.453 26.3669 359.453 26.8972V26.9788C359.453 27.2235 359.168 27.3867 358.801 27.3867H355.782C355.374 27.3867 355.088 27.2235 355.088 26.9788V26.8972C355.088 26.3669 356.353 26.4076 356.761 25.5102L363.737 9.68189C364.104 8.866 362.431 8.90679 362.431 8.29487V8.21328C362.431 7.96852 362.717 7.80534 363.125 7.80534H365.205C366.47 7.80534 366.878 7.96852 367.204 8.70282ZM361.289 19.3502H367.653L364.757 11.3953L361.289 19.3502ZM380.953 9.68189V25.7549H388.051C388.908 25.7549 389.234 23.8784 389.846 23.8784H389.928C390.172 23.8784 390.376 24.1639 390.336 24.5719L389.928 27.3867H377.077C376.669 27.3867 376.384 27.2235 376.384 26.9788V26.8972C376.384 26.3669 377.689 26.4484 377.689 25.5102V9.68189C377.689 8.74361 376.384 8.8252 376.384 8.29487V8.21328C376.384 7.96852 376.669 7.80534 377.077 7.80534H381.565C381.932 7.80534 382.218 7.96852 382.218 8.21328V8.29487C382.218 8.8252 380.953 8.74361 380.953 9.68189Z" fill="url(#paint8_linear_1943_10914)"/>
<path d="M119.478 39.4753H121.175V48.6133H119.478V39.4753ZM114.752 48.6133H113.055V39.4753H114.752V48.6133ZM119.608 44.697H114.609V43.248H119.608V44.697ZM126.6 48.7047C125.886 48.7047 125.251 48.5524 124.694 48.2478C124.137 47.9345 123.698 47.508 123.376 46.9684C123.054 46.4289 122.893 45.8153 122.893 45.1278C122.893 44.4316 123.054 43.818 123.376 43.2871C123.698 42.7476 124.137 42.3255 124.694 42.0209C125.251 41.7163 125.886 41.564 126.6 41.564C127.322 41.564 127.962 41.7163 128.519 42.0209C129.085 42.3255 129.524 42.7432 129.837 43.2741C130.159 43.805 130.32 44.4229 130.32 45.1278C130.32 45.8153 130.159 46.4289 129.837 46.9684C129.524 47.508 129.085 47.9345 128.519 48.2478C127.962 48.5524 127.322 48.7047 126.6 48.7047ZM126.6 47.3079C127 47.3079 127.357 47.2208 127.67 47.0468C127.984 46.8727 128.227 46.6203 128.401 46.2896C128.584 45.9589 128.676 45.5716 128.676 45.1278C128.676 44.6752 128.584 44.288 128.401 43.966C128.227 43.6353 127.984 43.3829 127.67 43.2088C127.357 43.0348 127.005 42.9477 126.613 42.9477C126.213 42.9477 125.856 43.0348 125.543 43.2088C125.238 43.3829 124.994 43.6353 124.811 43.966C124.629 44.288 124.537 44.6752 124.537 45.1278C124.537 45.5716 124.629 45.9589 124.811 46.2896C124.994 46.6203 125.238 46.8727 125.543 47.0468C125.856 47.2208 126.208 47.3079 126.6 47.3079ZM140.679 41.564C141.236 41.564 141.728 41.6728 142.154 41.8903C142.59 42.1079 142.929 42.443 143.173 42.8955C143.416 43.3394 143.538 43.9137 143.538 44.6187V48.6133H141.906V44.8275C141.906 44.2096 141.772 43.7484 141.502 43.4438C141.232 43.1392 140.845 42.9869 140.34 42.9869C139.983 42.9869 139.665 43.0652 139.387 43.2219C139.117 43.3785 138.904 43.6092 138.747 43.9137C138.599 44.2183 138.525 44.6056 138.525 45.0756V48.6133H136.894V44.8275C136.894 44.2096 136.759 43.7484 136.489 43.4438C136.219 43.1392 135.832 42.9869 135.327 42.9869C134.97 42.9869 134.653 43.0652 134.374 43.2219C134.104 43.3785 133.891 43.6092 133.734 43.9137C133.587 44.2183 133.513 44.6056 133.513 45.0756V48.6133H131.881V41.6423H133.434V43.496L133.16 42.9477C133.395 42.4952 133.734 42.1514 134.178 41.9164C134.631 41.6815 135.144 41.564 135.719 41.564C136.371 41.564 136.937 41.725 137.416 42.047C137.903 42.369 138.225 42.8564 138.382 43.5091L137.742 43.2871C137.968 42.765 138.343 42.3472 138.865 42.0339C139.387 41.7206 139.992 41.564 140.679 41.564ZM148.913 48.7047C148.138 48.7047 147.459 48.5524 146.876 48.2478C146.302 47.9345 145.854 47.508 145.532 46.9684C145.218 46.4289 145.062 45.8153 145.062 45.1278C145.062 44.4316 145.214 43.818 145.519 43.2871C145.832 42.7476 146.258 42.3255 146.798 42.0209C147.346 41.7163 147.969 41.564 148.665 41.564C149.344 41.564 149.948 41.7119 150.479 42.0078C151.01 42.3037 151.428 42.7215 151.733 43.261C152.037 43.8006 152.189 44.4359 152.189 45.167C152.189 45.2366 152.185 45.3149 152.176 45.4019C152.176 45.489 152.172 45.5716 152.163 45.65H146.354V44.5665H151.302L150.662 44.9059C150.671 44.5055 150.588 44.1531 150.414 43.8485C150.24 43.5439 150.001 43.3046 149.696 43.1305C149.4 42.9564 149.056 42.8694 148.665 42.8694C148.264 42.8694 147.912 42.9564 147.607 43.1305C147.311 43.3046 147.077 43.5482 146.902 43.8615C146.737 44.1661 146.654 44.5273 146.654 44.945V45.2061C146.654 45.6239 146.75 45.9937 146.942 46.3157C147.133 46.6377 147.403 46.8858 147.751 47.0598C148.099 47.2339 148.499 47.3209 148.952 47.3209C149.344 47.3209 149.696 47.26 150.009 47.1382C150.323 47.0163 150.601 46.8248 150.845 46.5638L151.719 47.5689C151.406 47.9345 151.01 48.2173 150.532 48.4175C150.062 48.6089 149.522 48.7047 148.913 48.7047ZM156.229 48.6133L160.341 39.4753H162.012L166.137 48.6133H164.362L160.824 40.376H161.503L157.978 48.6133H156.229ZM158.122 46.4985L158.579 45.167H163.513L163.97 46.4985H158.122ZM168.326 48.6133L165.767 41.6423H167.308L169.501 47.7909H168.77L171.067 41.6423H172.438L174.67 47.7909H173.952L176.211 41.6423H177.66L175.088 48.6133H173.522L171.485 43.1697H171.968L169.893 48.6133H168.326ZM182.86 48.6133V47.2034L182.769 46.9032V44.4359C182.769 43.9573 182.625 43.5874 182.338 43.3263C182.051 43.0565 181.615 42.9216 181.032 42.9216C180.641 42.9216 180.253 42.9825 179.87 43.1044C179.496 43.2262 179.179 43.3959 178.918 43.6135L178.278 42.4256C178.652 42.1384 179.096 41.9252 179.609 41.7859C180.132 41.638 180.671 41.564 181.228 41.564C182.238 41.564 183.017 41.8077 183.565 42.295C184.122 42.7737 184.4 43.5178 184.4 44.5273V48.6133H182.86ZM180.667 48.7047C180.145 48.7047 179.688 48.6176 179.296 48.4436C178.904 48.2608 178.6 48.0128 178.382 47.6995C178.173 47.3775 178.069 47.0163 178.069 46.616C178.069 46.2244 178.16 45.8719 178.343 45.5586C178.535 45.2453 178.844 44.9973 179.27 44.8145C179.696 44.6317 180.262 44.5404 180.967 44.5404H182.99V45.6239H181.085C180.528 45.6239 180.153 45.7152 179.962 45.898C179.77 46.0721 179.675 46.2896 179.675 46.5507C179.675 46.8466 179.792 47.0816 180.027 47.2556C180.262 47.4297 180.588 47.5167 181.006 47.5167C181.407 47.5167 181.763 47.4253 182.077 47.2426C182.399 47.0598 182.629 46.79 182.769 46.4332L183.043 47.4123C182.886 47.8213 182.603 48.139 182.194 48.3653C181.794 48.5915 181.285 48.7047 180.667 48.7047ZM186.941 51.2372C186.602 51.2372 186.263 51.1806 185.923 51.0675C185.584 50.9543 185.301 50.7977 185.075 50.5975L185.727 49.3965C185.893 49.5445 186.08 49.662 186.289 49.749C186.498 49.836 186.711 49.8795 186.928 49.8795C187.224 49.8795 187.464 49.8056 187.646 49.6576C187.829 49.5097 187.999 49.2616 188.155 48.9135L188.56 47.9997L188.691 47.8039L191.328 41.6423H192.894L189.631 49.1746C189.413 49.6968 189.169 50.1102 188.9 50.4148C188.638 50.7194 188.343 50.9326 188.012 51.0544C187.69 51.1763 187.333 51.2372 186.941 51.2372ZM188.377 48.8613L185.231 41.6423H186.928L189.487 47.6603L188.377 48.8613ZM199.232 43.6788H203.788V45.1147H199.232V43.6788ZM199.375 48.6133H197.678V39.4753H204.349V40.8982H199.375V48.6133ZM205.706 48.6133V41.6423H207.26V43.5613L207.077 43C207.286 42.53 207.612 42.1732 208.056 41.9295C208.508 41.6858 209.07 41.564 209.74 41.564V43.1174C209.67 43.1 209.605 43.0913 209.544 43.0913C209.483 43.0826 209.422 43.0783 209.361 43.0783C208.743 43.0783 208.252 43.261 207.886 43.6266C207.521 43.9834 207.338 44.5186 207.338 45.2322V48.6133H205.706ZM214.193 48.7047C213.48 48.7047 212.845 48.5524 212.288 48.2478C211.731 47.9345 211.291 47.508 210.969 46.9684C210.647 46.4289 210.486 45.8153 210.486 45.1278C210.486 44.4316 210.647 43.818 210.969 43.2871C211.291 42.7476 211.731 42.3255 212.288 42.0209C212.845 41.7163 213.48 41.564 214.193 41.564C214.916 41.564 215.555 41.7163 216.112 42.0209C216.678 42.3255 217.118 42.7432 217.431 43.2741C217.753 43.805 217.914 44.4229 217.914 45.1278C217.914 45.8153 217.753 46.4289 217.431 46.9684C217.118 47.508 216.678 47.9345 216.112 48.2478C215.555 48.5524 214.916 48.7047 214.193 48.7047ZM214.193 47.3079C214.594 47.3079 214.951 47.2208 215.264 47.0468C215.577 46.8727 215.821 46.6203 215.995 46.2896C216.178 45.9589 216.269 45.5716 216.269 45.1278C216.269 44.6752 216.178 44.288 215.995 43.966C215.821 43.6353 215.577 43.3829 215.264 43.2088C214.951 43.0348 214.598 42.9477 214.207 42.9477C213.806 42.9477 213.449 43.0348 213.136 43.2088C212.831 43.3829 212.588 43.6353 212.405 43.966C212.222 44.288 212.131 44.6752 212.131 45.1278C212.131 45.5716 212.222 45.9589 212.405 46.2896C212.588 46.6203 212.831 46.8727 213.136 47.0468C213.449 47.2208 213.802 47.3079 214.193 47.3079ZM228.273 41.564C228.83 41.564 229.322 41.6728 229.748 41.8903C230.183 42.1079 230.523 42.443 230.766 42.8955C231.01 43.3394 231.132 43.9137 231.132 44.6187V48.6133H229.5V44.8275C229.5 44.2096 229.365 43.7484 229.095 43.4438C228.826 43.1392 228.438 42.9869 227.933 42.9869C227.577 42.9869 227.259 43.0652 226.981 43.2219C226.711 43.3785 226.498 43.6092 226.341 43.9137C226.193 44.2183 226.119 44.6056 226.119 45.0756V48.6133H224.487V44.8275C224.487 44.2096 224.352 43.7484 224.082 43.4438C223.813 43.1392 223.425 42.9869 222.921 42.9869C222.564 42.9869 222.246 43.0652 221.968 43.2219C221.698 43.3785 221.485 43.6092 221.328 43.9137C221.18 44.2183 221.106 44.6056 221.106 45.0756V48.6133H219.474V41.6423H221.028V43.496L220.754 42.9477C220.989 42.4952 221.328 42.1514 221.772 41.9164C222.224 41.6815 222.738 41.564 223.312 41.564C223.965 41.564 224.531 41.725 225.009 42.047C225.497 42.369 225.819 42.8564 225.975 43.5091L225.336 43.2871C225.562 42.765 225.936 42.3472 226.458 42.0339C226.981 41.7206 227.585 41.564 228.273 41.564ZM243.404 39.4753H245.101V48.6133H243.404V39.4753ZM238.678 48.6133H236.981V39.4753H238.678V48.6133ZM243.535 44.697H238.535V43.248H243.535V44.697ZM250.526 48.7047C249.812 48.7047 249.177 48.5524 248.62 48.2478C248.063 47.9345 247.624 47.508 247.302 46.9684C246.98 46.4289 246.819 45.8153 246.819 45.1278C246.819 44.4316 246.98 43.818 247.302 43.2871C247.624 42.7476 248.063 42.3255 248.62 42.0209C249.177 41.7163 249.812 41.564 250.526 41.564C251.248 41.564 251.888 41.7163 252.445 42.0209C253.011 42.3255 253.45 42.7432 253.764 43.2741C254.086 43.805 254.247 44.4229 254.247 45.1278C254.247 45.8153 254.086 46.4289 253.764 46.9684C253.45 47.508 253.011 47.9345 252.445 48.2478C251.888 48.5524 251.248 48.7047 250.526 48.7047ZM250.526 47.3079C250.926 47.3079 251.283 47.2208 251.597 47.0468C251.91 46.8727 252.154 46.6203 252.328 46.2896C252.51 45.9589 252.602 45.5716 252.602 45.1278C252.602 44.6752 252.51 44.288 252.328 43.966C252.154 43.6353 251.91 43.3829 251.597 43.2088C251.283 43.0348 250.931 42.9477 250.539 42.9477C250.139 42.9477 249.782 43.0348 249.469 43.2088C249.164 43.3829 248.92 43.6353 248.738 43.966C248.555 44.288 248.464 44.6752 248.464 45.1278C248.464 45.5716 248.555 45.9589 248.738 46.2896C248.92 46.6203 249.164 46.8727 249.469 47.0468C249.782 47.2208 250.134 47.3079 250.526 47.3079ZM264.606 41.564C265.163 41.564 265.654 41.6728 266.081 41.8903C266.516 42.1079 266.855 42.443 267.099 42.8955C267.343 43.3394 267.464 43.9137 267.464 44.6187V48.6133H265.833V44.8275C265.833 44.2096 265.698 43.7484 265.428 43.4438C265.158 43.1392 264.771 42.9869 264.266 42.9869C263.909 42.9869 263.592 43.0652 263.313 43.2219C263.043 43.3785 262.83 43.6092 262.673 43.9137C262.526 44.2183 262.452 44.6056 262.452 45.0756V48.6133H260.82V44.8275C260.82 44.2096 260.685 43.7484 260.415 43.4438C260.145 43.1392 259.758 42.9869 259.253 42.9869C258.896 42.9869 258.579 43.0652 258.3 43.2219C258.031 43.3785 257.817 43.6092 257.661 43.9137C257.513 44.2183 257.439 44.6056 257.439 45.0756V48.6133H255.807V41.6423H257.36V43.496L257.086 42.9477C257.321 42.4952 257.661 42.1514 258.105 41.9164C258.557 41.6815 259.071 41.564 259.645 41.564C260.298 41.564 260.863 41.725 261.342 42.047C261.829 42.369 262.151 42.8564 262.308 43.5091L261.668 43.2871C261.895 42.765 262.269 42.3472 262.791 42.0339C263.313 41.7206 263.918 41.564 264.606 41.564ZM272.839 48.7047C272.064 48.7047 271.386 48.5524 270.803 48.2478C270.228 47.9345 269.78 47.508 269.458 46.9684C269.145 46.4289 268.988 45.8153 268.988 45.1278C268.988 44.4316 269.14 43.818 269.445 43.2871C269.758 42.7476 270.185 42.3255 270.724 42.0209C271.272 41.7163 271.895 41.564 272.591 41.564C273.27 41.564 273.875 41.7119 274.405 42.0078C274.936 42.3037 275.354 42.7215 275.659 43.261C275.963 43.8006 276.116 44.4359 276.116 45.167C276.116 45.2366 276.111 45.3149 276.103 45.4019C276.103 45.489 276.098 45.5716 276.089 45.65H270.28V44.5665H275.228L274.588 44.9059C274.597 44.5055 274.514 44.1531 274.34 43.8485C274.166 43.5439 273.927 43.3046 273.622 43.1305C273.326 42.9564 272.983 42.8694 272.591 42.8694C272.191 42.8694 271.838 42.9564 271.534 43.1305C271.238 43.3046 271.003 43.5482 270.829 43.8615C270.663 44.1661 270.581 44.5273 270.581 44.945V45.2061C270.581 45.6239 270.676 45.9937 270.868 46.3157C271.059 46.6377 271.329 46.8858 271.677 47.0598C272.025 47.2339 272.426 47.3209 272.878 47.3209C273.27 47.3209 273.622 47.26 273.936 47.1382C274.249 47.0163 274.527 46.8248 274.771 46.5638L275.646 47.5689C275.332 47.9345 274.936 48.2173 274.458 48.4175C273.988 48.6089 273.448 48.7047 272.839 48.7047Z" fill="url(#paint9_linear_1943_10914)"/>
<defs>
<linearGradient id="paint0_linear_1943_10914" x1="95.8257" y1="18.8267" x2="39.5625" y2="18.8267" gradientUnits="userSpaceOnUse">
<stop stop-color="#FF1E27"/>
<stop offset="1" stop-color="#7D141D"/>
</linearGradient>
<linearGradient id="paint1_linear_1943_10914" x1="60.3842" y1="21.1139" x2="0" y2="21.1139" gradientUnits="userSpaceOnUse">
<stop stop-color="#FF1E27"/>
<stop offset="1" stop-color="#7D141D"/>
</linearGradient>
<linearGradient id="paint2_linear_1943_10914" x1="28.9568" y1="28.2611" x2="24.9219" y2="28.2611" gradientUnits="userSpaceOnUse">
<stop stop-color="#FF1E27"/>
<stop offset="1" stop-color="#7D141D"/>
</linearGradient>
<linearGradient id="paint3_linear_1943_10914" x1="35.0248" y1="28.2614" x2="30.9688" y2="28.2614" gradientUnits="userSpaceOnUse">
<stop stop-color="#FF1E27"/>
<stop offset="1" stop-color="#7D141D"/>
</linearGradient>
<linearGradient id="paint4_linear_1943_10914" x1="28.956" y1="33.8146" x2="24.9609" y2="33.8146" gradientUnits="userSpaceOnUse">
<stop stop-color="#FF1E27"/>
<stop offset="1" stop-color="#7D141D"/>
</linearGradient>
<linearGradient id="paint5_linear_1943_10914" x1="35.0161" y1="33.8372" x2="30.9531" y2="33.8372" gradientUnits="userSpaceOnUse">
<stop stop-color="#FF1E27"/>
<stop offset="1" stop-color="#7D141D"/>
</linearGradient>
<linearGradient id="paint6_linear_1943_10914" x1="91.1049" y1="46.484" x2="38.3594" y2="46.484" gradientUnits="userSpaceOnUse">
<stop stop-color="#FF1E27"/>
<stop offset="1" stop-color="#7D141D"/>
</linearGradient>
<linearGradient id="paint7_linear_1943_10914" x1="56.0736" y1="51.4267" x2="3.64062" y2="51.4267" gradientUnits="userSpaceOnUse">
<stop stop-color="#FF1E27"/>
<stop offset="1" stop-color="#7D141D"/>
</linearGradient>
<linearGradient id="paint8_linear_1943_10914" x1="389.466" y1="18.2767" x2="117.744" y2="18.3483" gradientUnits="userSpaceOnUse">
<stop stop-color="#FF1E27"/>
<stop offset="1" stop-color="#7D141D"/>
</linearGradient>
<linearGradient id="paint9_linear_1943_10914" x1="111.828" y1="43.6133" x2="401.093" y2="43.6133" gradientUnits="userSpaceOnUse">
<stop stop-color="#7D141D"/>
<stop offset="1" stop-color="#FF1E27"/>
</linearGradient>
</defs>
</svg>
